<?xml version="1.0" encoding="UTF-8" standalone="no"?>
<svg
   xmlns:dc="http://purl.org/dc/elements/1.1/"
   xmlns:cc="http://creativecommons.org/ns#"
   xmlns:rdf="http://www.w3.org/1999/02/22-rdf-syntax-ns#"
   xmlns:svg="http://www.w3.org/2000/svg"
   xmlns="http://www.w3.org/2000/svg"
   xmlns:sodipodi="http://sodipodi.sourceforge.net/DTD/sodipodi-0.dtd"
   xmlns:inkscape="http://www.inkscape.org/namespaces/inkscape"
   version="1.0"
   width="1788.000000pt"
   height="1924.000000pt"
   viewBox="0 0 1788.000000 1924.000000"
   preserveAspectRatio="xMidYMid meet"
   id="svg2"
   inkscape:version="0.48.4 r9939"
   sodipodi:docname="logo_mdl_bleu_sans_texte.svg">
  <defs
     id="defs36" />
  <sodipodi:namedview
     pagecolor="#ffffff"
     bordercolor="#666666"
     borderopacity="1"
     objecttolerance="10"
     gridtolerance="10"
     guidetolerance="10"
     inkscape:pageopacity="0"
     inkscape:pageshadow="2"
     inkscape:window-width="1366"
     inkscape:window-height="692"
     id="namedview34"
     showgrid="false"
     inkscape:zoom="0.098128898"
     inkscape:cx="1117.5"
     inkscape:cy="1202.5"
     inkscape:window-x="0"
     inkscape:window-y="24"
     inkscape:window-maximized="1"
     inkscape:current-layer="svg2" />
  <metadata
     id="metadata4">
Created by potrace 1.16, written by Peter Selinger 2001-2019
<rdf:RDF>
  <cc:Work
     rdf:about="">
    <dc:format>image/svg+xml</dc:format>
    <dc:type
       rdf:resource="http://purl.org/dc/dcmitype/StillImage" />
    <dc:title></dc:title>
  </cc:Work>
</rdf:RDF>
</metadata>
  <g
     transform="translate(0.000000,1924.000000) scale(0.100000,-0.100000)"
     fill="#000000"
     stroke="none"
     id="g6"
     style="fill:#000000;stroke:none;fill-opacity:1">
    <path
       d="M1370 18880 l0 -360 365 0 365 0 0 360 0 360 -365 0 -365 0 0 -360z"
       id="path8"
       style="fill:#000000;stroke:none;fill-opacity:1" />
    <path
       d="M9970 18492 l-635 -388 -3 -742 -2 -742 -625 0 -625 0 0 -360 0 -360 -115 0 -115 0 0 -370 0 -370 615 0 615 0 0 -740 0 -740 -745 0 -745 0 0 510 0 510 -415 0 -415 0 0 -295 0 -295 -445 0 -445 0 0 -520 0 -520 730 0 730 0 0 -935 0 -935 -930 0 -930 0 0 720 0 720 -1055 0 -1055 0 0 -480 0 -480 570 0 570 0 0 -565 0 -565 550 0 550 0 0 -740 0 -740 -205 0 -205 0 0 -390 0 -390 -415 0 -415 0 0 -320 0 -320 660 0 660 0 0 -200 0 -200 605 0 605 0 0 -745 0 -745 -605 0 -605 0 0 -390 0 -390 -1160 0 -1160 0 0 -2490 0 -2490 7260 0 7260 0 0 7238 -1 7237 -3618 2200 c-1990 1210 -3626 2201 -3637 2202 -10 1 -305 -172 -654 -385z m-5117 -14081 c22 -13 306 -329 670 -745 719 -821 728 -831 782 -859 78 -40 185 -23 261 40 12 10 280 342 597 738 316 396 587 732 603 746 45 41 88 59 145 59 101 0 195 -73 241 -189 l23 -56 0 -1615 0 -1615 -23 -57 c-31 -76 -100 -152 -160 -175 -45 -17 -124 -18 -1672 -18 l-1625 0 -53 29 c-65 36 -118 105 -143 187 -18 58 -19 123 -19 1674 0 1587 0 1614 20 1678 24 77 91 159 155 189 55 26 147 21 198 -11z m6094 14 c514 -67 966 -282 1322 -629 359 -351 572 -770 612 -1207 37 -408 -118 -869 -422 -1249 -83 -105 -238 -260 -339 -341 -251 -201 -608 -370 -925 -439 -220 -47 -284 -52 -842 -57 -565 -6 -667 -1 -782 38 -83 28 -197 106 -261 177 -56 62 -120 186 -141 272 -21 82 -20 2889 0 2970 56 224 224 398 445 461 55 16 119 18 638 18 464 1 600 -2 695 -14z m3544 -5 c149 -50 254 -164 294 -315 13 -52 15 -221 15 -1337 l0 -1278 884 0 c857 0 886 -1 949 -20 135 -42 250 -148 303 -280 32 -78 43 -214 25 -302 -40 -192 -210 -350 -406 -378 -96 -13 -2207 -13 -2300 0 -195 29 -354 183 -385 375 -6 37 -10 645 -10 1595 0 1280 3 1546 14 1601 35 163 144 287 301 341 74 26 237 24 316 -2z"
       id="path10"
       style="fill:#000000;stroke:none;fill-opacity:1" />
    <path
       d="M6820 18045 l0 -755 755 0 755 0 0 755 0 755 -755 0 -755 0 0 -755z"
       id="path12"
       style="fill:#000000;stroke:none;fill-opacity:1" />
    <path
       d="M2850 16990 l0 -640 640 0 640 0 0 640 0 640 -640 0 -640 0 0 -640z"
       id="path14"
       style="fill:#000000;stroke:none;fill-opacity:1" />
    <path
       d="M5150 16990 l0 -360 365 0 365 0 0 360 0 360 -365 0 -365 0 0 -360z"
       id="path16"
       style="fill:#000000;stroke:none;fill-opacity:1" />
    <path
       d="M0 16390 l0 -910 910 0 910 0 0 910 0 910 -910 0 -910 0 0 -910z"
       id="path18"
       style="fill:#000000;stroke:none;fill-opacity:1" />
    <path
       d="M5210 15165 l0 -565 560 0 560 0 0 565 0 565 -560 0 -560 0 0 -565z"
       id="path20"
       style="fill:#000000;stroke:none;fill-opacity:1" />
    <path
       d="M1020 13470 l0 -840 840 0 840 0 0 840 0 840 -840 0 -840 0 0 -840z"
       id="path22"
       style="fill:#000000;stroke:none;fill-opacity:1" />
    <path
       d="M4140 13780 l0 -360 360 0 360 0 0 360 0 360 -360 0 -360 0 0 -360z"
       id="path24"
       style="fill:#000000;stroke:none;fill-opacity:1" />
    <path
       d="M660 10555 l0 -365 360 0 360 0 0 365 0 365 -360 0 -360 0 0 -365z"
       id="path26"
       style="fill:#000000;stroke:none;fill-opacity:1" />
    <path
       d="M3360 9580 l0 -720 225 0 225 0 0 405 0 405 155 0 155 0 0 315 0 315 -380 0 -380 0 0 -720z"
       id="path28"
       style="fill:#000000;stroke:none;fill-opacity:1" />
    <path
       d="M2290 8070 l0 -400 400 0 400 0 0 400 0 400 -400 0 -400 0 0 -400z"
       id="path30"
       style="fill:#000000;stroke:none;fill-opacity:1" />
    <path
       d="M3730 6315 l0 -675 675 0 675 0 0 675 0 675 -675 0 -675 0 0 -675z"
       id="path32"
       style="fill:#000000;stroke:none;fill-opacity:1" />
  </g>
</svg>
